<svg xmlns="http://www.w3.org/2000/svg" viewBox="0 0 100 100" width="100" height="100">
  <defs>
    <linearGradient id="projectsGradient" x1="0%" y1="0%" x2="100%" y2="100%">
      <stop offset="0%" style="stop-color:#4F46E5"/>
      <stop offset="50%" style="stop-color:#06B6D4"/>
      <stop offset="100%" style="stop-color:#10B981"/>
    </linearGradient>
    <filter id="projectsGlow" x="-20%" y="-20%" width="140%" height="140%">
      <feGaussianBlur stdDeviation="2" result="coloredBlur"/>
      <feMerge>
        <feMergeNode in="coloredBlur"/>
        <feMergeNode in="SourceGraphic"/>
      </feMerge>
    </filter>
  </defs>
  <g fill="none" stroke="url(#projectsGradient)" stroke-width="3" stroke-linecap="round" stroke-linejoin="round" filter="url(#projectsGlow)">
    <!-- Back folder -->
    <path d="M15 30 L15 75 Q15 80 20 80 L65 80 Q70 80 70 75 L70 35 Q70 30 65 30 L40 30 L35 22 L20 22 Q15 22 15 27 L15 30"/>
    <!-- Middle folder -->
    <path d="M25 35 L25 80 Q25 85 30 85 L75 85 Q80 85 80 80 L80 40 Q80 35 75 35 L50 35 L45 27 L30 27 Q25 27 25 32 L25 35"/>
    <!-- Front folder -->
    <path d="M35 40 L35 85 Q35 90 40 90 L85 90 Q90 90 90 85 L90 45 Q90 40 85 40 L60 40 L55 32 L40 32 Q35 32 35 37 L35 40"/>
  </g>
</svg>
