<svg xmlns="http://www.w3.org/2000/svg" viewBox="0 0 100 100" width="100" height="100">
  <defs>
    <linearGradient id="settingsGradient" x1="0%" y1="0%" x2="100%" y2="100%">
      <stop offset="0%" style="stop-color:#4F46E5"/>
      <stop offset="50%" style="stop-color:#06B6D4"/>
      <stop offset="100%" style="stop-color:#10B981"/>
    </linearGradient>
    <filter id="settingsGlow" x="-20%" y="-20%" width="140%" height="140%">
      <feGaussianBlur stdDeviation="2" result="coloredBlur"/>
      <feMerge>
        <feMergeNode in="coloredBlur"/>
        <feMergeNode in="SourceGraphic"/>
      </feMerge>
    </filter>
  </defs>
  <g fill="none" stroke="url(#settingsGradient)" stroke-width="3" stroke-linecap="round" stroke-linejoin="round" filter="url(#settingsGlow)">
    <!-- Center circle -->
    <circle cx="50" cy="50" r="12"/>
    <!-- Gear outline with 8 teeth -->
    <path d="M50 12 L54 20 L60 20 L64 12
             L72 16 L70 24 L76 28 L84 24
             L88 32 L80 36 L80 42 L88 46
             L88 54 L80 58 L80 64 L88 68
             L84 76 L76 72 L70 76 L72 84
             L64 88 L60 80 L54 80 L50 88
             L46 80 L40 80 L36 88
             L28 84 L30 76 L24 72 L16 76
             L12 68 L20 64 L20 58 L12 54
             L12 46 L20 42 L20 36 L12 32
             L16 24 L24 28 L30 24 L28 16
             L36 12 L40 20 L46 20 Z"/>
  </g>
</svg>
